{
	"asset":{
		"version":"2.0",
		"generator":"Created using the official Cinema 4D glTF Exporter 1.000x284978"
	},
	"textures":[{
		"sampler":0,
		"source":0
	},
	{
		"sampler":1,
		"source":1
	},
	{
		"sampler":2,
		"source":2
	},
	{
		"sampler":3,
		"source":3
	},
	{
		"sampler":4,
		"source":4
	},
	{
		"sampler":5,
		"source":5
	},
	{
		"sampler":6,
		"source":6
	},
	{
		"sampler":7,
		"source":7
	}],
	"scenes":[{
		"nodes":[0]
	}],
	"nodes":[{
		"name":"Wea_NEKO_LightningWhip_01",
		"translation":[-8.881784197001253e-16,
		6.661338147750939e-16,
		-8.881784197001253e-16],
		"rotation":[0.0,
		0.0,
		0.0,
		-1.0],
		"scale":[1.0,
		1.0,
		1.0],
		"children":[1,
		2,
		3,
		4,
		5,
		6,
		7,
		8,
		9]
	},
	{
		"name":"Wea_NEKO_LightningWhip_01-mtl_NEKO_Subrace_Crystalist_Head",
		"translation":[0.0,
		0.0,
		0.0],
		"rotation":[0.0,
		0.0,
		0.0,
		-1.0],
		"scale":[1.0,
		1.0,
		1.0],
		"mesh":0
	},
	{
		"name":"Wea_NEKO_LightningWhip_01-mtl_NEKO_Subrace_eyes",
		"translation":[0.0,
		0.0,
		0.0],
		"rotation":[0.0,
		0.0,
		0.0,
		-1.0],
		"scale":[1.0,
		1.0,
		1.0],
		"mesh":1
	},
	{
		"name":"Wea_NEKO_LightningWhip_01-mtl_NEKO_CatInAShell_Pant",
		"translation":[0.0,
		0.0,
		0.0],
		"rotation":[0.0,
		0.0,
		0.0,
		-1.0],
		"scale":[1.0,
		1.0,
		1.0],
		"mesh":2
	},
	{
		"name":"Wea_NEKO_LightningWhip_01-mtl_NEKO_CatInAShell_Shoes",
		"translation":[0.0,
		0.0,
		0.0],
		"rotation":[0.0,
		0.0,
		0.0,
		-1.0],
		"scale":[1.0,
		1.0,
		1.0],
		"mesh":3
	},
	{
		"name":"Wea_NEKO_LightningWhip_01-mtl_NEKO_CatInAShell_Hand",
		"translation":[0.0,
		0.0,
		0.0],
		"rotation":[0.0,
		0.0,
		0.0,
		-1.0],
		"scale":[1.0,
		1.0,
		1.0],
		"mesh":4
	},
	{
		"name":"Wea_NEKO_LightningWhip_01-mtl_NEKO_CatInAShell_Cloth",
		"translation":[0.0,
		0.0,
		0.0],
		"rotation":[0.0,
		0.0,
		0.0,
		-1.0],
		"scale":[1.0,
		1.0,
		1.0],
		"mesh":5
	},
	{
		"name":"Wea_NEKO_LightningWhip_01-mtl_NEKO_Top",
		"translation":[0.0,
		0.0,
		0.0],
		"rotation":[0.0,
		0.0,
		0.0,
		-1.0],
		"scale":[1.0,
		1.0,
		1.0],
		"mesh":6
	},
	{
		"name":"Wea_NEKO_LightningWhip_01-mtl_NEKO_CatInAShell_Accessories",
		"translation":[0.0,
		0.0,
		0.0],
		"rotation":[0.0,
		0.0,
		0.0,
		-1.0],
		"scale":[1.0,
		1.0,
		1.0],
		"mesh":7
	},
	{
		"name":"Wea_NEKO_LightningWhip_01-mtl_Wea_NEKO_LightningWhip_06",
		"translation":[0.0,
		0.0,
		0.0],
		"rotation":[0.0,
		0.0,
		0.0,
		-1.0],
		"scale":[1.0,
		1.0,
		1.0],
		"mesh":8
	}],
	"samplers":[{
		"magFilter":9729,
		"minFilter":9729,
		"wrapS":10497,
		"wrapT":10497
	},
	{
		"magFilter":9729,
		"minFilter":9729,
		"wrapS":10497,
		"wrapT":10497
	},
	{
		"magFilter":9729,
		"minFilter":9729,
		"wrapS":10497,
		"wrapT":10497
	},
	{
		"magFilter":9729,
		"minFilter":9729,
		"wrapS":10497,
		"wrapT":10497
	},
	{
		"magFilter":9729,
		"minFilter":9729,
		"wrapS":10497,
		"wrapT":10497
	},
	{
		"magFilter":9729,
		"minFilter":9729,
		"wrapS":10497,
		"wrapT":10497
	},
	{
		"magFilter":9729,
		"minFilter":9729,
		"wrapS":10497,
		"wrapT":10497
	},
	{
		"magFilter":9729,
		"minFilter":9729,
		"wrapS":10497,
		"wrapT":10497
	}],
	"meshes":[{
		"name":"Wea_NEKO_LightningWhip_01-mtl_NEKO_Subrace_Crystalist_Head",
		"primitives":[{
			"attributes":{
				"POSITION":1,
				"NORMAL":2,
				"TEXCOORD_0":3
			},
			"indices":0,
			"material":0
		}]
	},
	{
		"name":"Wea_NEKO_LightningWhip_01-mtl_NEKO_Subrace_eyes",
		"primitives":[{
			"attributes":{
				"POSITION":5,
				"NORMAL":6,
				"TEXCOORD_0":7
			},
			"indices":4,
			"material":1
		}]
	},
	{
		"name":"Wea_NEKO_LightningWhip_01-mtl_NEKO_CatInAShell_Pant",
		"primitives":[{
			"attributes":{
				"POSITION":9,
				"NORMAL":10,
				"TEXCOORD_0":11
			},
			"indices":8,
			"material":2
		}]
	},
	{
		"name":"Wea_NEKO_LightningWhip_01-mtl_NEKO_CatInAShell_Shoes",
		"primitives":[{
			"attributes":{
				"POSITION":13,
				"NORMAL":14,
				"TEXCOORD_0":15
			},
			"indices":12,
			"material":3
		}]
	},
	{
		"name":"Wea_NEKO_LightningWhip_01-mtl_NEKO_CatInAShell_Hand",
		"primitives":[{
			"attributes":{
				"POSITION":17,
				"NORMAL":18,
				"TEXCOORD_0":19
			},
			"indices":16,
			"material":4
		}]
	},
	{
		"name":"Wea_NEKO_LightningWhip_01-mtl_NEKO_CatInAShell_Cloth",
		"primitives":[{
			"attributes":{
				"POSITION":21,
				"NORMAL":22,
				"TEXCOORD_0":23
			},
			"indices":20,
			"material":5
		}]
	},
	{
		"name":"Wea_NEKO_LightningWhip_01-mtl_NEKO_Top",
		"primitives":[{
			"attributes":{
				"POSITION":25,
				"NORMAL":26,
				"TEXCOORD_0":27
			},
			"indices":24,
			"material":6
		}]
	},
	{
		"name":"Wea_NEKO_LightningWhip_01-mtl_NEKO_CatInAShell_Accessories",
		"primitives":[{
			"attributes":{
				"POSITION":29,
				"NORMAL":30,
				"TEXCOORD_0":31
			},
			"indices":28,
			"material":7
		}]
	},
	{
		"name":"Wea_NEKO_LightningWhip_01-mtl_Wea_NEKO_LightningWhip_06",
		"primitives":[{
			"attributes":{
				"POSITION":33,
				"NORMAL":34,
				"TEXCOORD_0":35
			},
			"indices":32,
			"material":8
		}]
	}],
	"accessors":[{
		"bufferView":0,
		"max":[1453],
		"type":"SCALAR",
		"min":[0],
		"componentType":5123,
		"count":5724,
		"byteOffset":0
	},
	{
		"bufferView":1,
		"max":[15.218758583068848,
		186.35264587402345,
		12.19582462310791],
		"type":"VEC3",
		"min":[-15.218758583068848,
		153.18927001953126,
		-8.203742027282715],
		"componentType":5126,
		"count":1454,
		"byteOffset":0
	},
	{
		"bufferView":1,
		"max":[0.9971563220024109,
		0.9962813258171082,
		0.9997813105583191],
		"type":"VEC3",
		"min":[-0.9971563220024109,
		-0.9992188215255737,
		-0.9883750677108765],
		"componentType":5126,
		"count":1454,
		"byteOffset":12
	},
	{
		"bufferView":1,
		"max":[1.9782320261001588,
		-0.00390625],
		"type":"VEC2",
		"min":[0.00390625,
		-0.99609375],
		"componentType":5126,
		"count":1454,
		"byteOffset":24
	},
	{
		"bufferView":2,
		"max":[211],
		"type":"SCALAR",
		"min":[0],
		"componentType":5123,
		"count":1056,
		"byteOffset":0
	},
	{
		"bufferView":3,
		"max":[5.77471923828125,
		167.03163146972657,
		10.271586418151856],
		"type":"VEC3",
		"min":[-5.774935245513916,
		161.4984893798828,
		4.8100457191467289],
		"componentType":5126,
		"count":212,
		"byteOffset":0
	},
	{
		"bufferView":3,
		"max":[0.9836875200271606,
		0.9987813234329224,
		0.9893438220024109],
		"type":"VEC3",
		"min":[-0.9836875200271606,
		-0.9987813234329224,
		-0.9871562719345093],
		"componentType":5126,
		"count":212,
		"byteOffset":12
	},
	{
		"bufferView":3,
		"max":[0.9852386116981506,
		-0.030800223350524904],
		"type":"VEC2",
		"min":[0.03620129078626633,
		-0.9737291932106018],
		"componentType":5126,
		"count":212,
		"byteOffset":24
	},
	{
		"bufferView":4,
		"max":[807],
		"type":"SCALAR",
		"min":[0],
		"componentType":5123,
		"count":4218,
		"byteOffset":0
	},
	{
		"bufferView":5,
		"max":[18.526676177978517,
		120.41865539550781,
		15.51807689666748],
		"type":"VEC3",
		"min":[-18.526676177978517,
		21.013141632080079,
		-11.41249942779541],
		"componentType":5126,
		"count":808,
		"byteOffset":0
	},
	{
		"bufferView":5,
		"max":[0.9952500462532044,
		0.9768750667572022,
		0.999000072479248],
		"type":"VEC3",
		"min":[-0.9952500462532044,
		-0.9931563138961792,
		-0.999093770980835],
		"componentType":5126,
		"count":808,
		"byteOffset":12
	},
	{
		"bufferView":5,
		"max":[0.988025963306427,
		-0.031027913093566896],
		"type":"VEC2",
		"min":[0.03096490167081356,
		-0.9864362478256226],
		"componentType":5126,
		"count":808,
		"byteOffset":24
	},
	{
		"bufferView":6,
		"max":[553],
		"type":"SCALAR",
		"min":[0],
		"componentType":5123,
		"count":2292,
		"byteOffset":0
	},
	{
		"bufferView":7,
		"max":[18.60021209716797,
		24.979846954345704,
		14.741532325744629],
		"type":"VEC3",
		"min":[-18.60021209716797,
		0.510234534740448,
		-13.750140190124512],
		"componentType":5126,
		"count":554,
		"byteOffset":0
	},
	{
		"bufferView":7,
		"max":[0.998468816280365,
		1.0,
		1.0],
		"type":"VEC3",
		"min":[-0.998468816280365,
		-1.0,
		-0.9807813167572022],
		"componentType":5126,
		"count":554,
		"byteOffset":12
	},
	{
		"bufferView":7,
		"max":[0.9384654760360718,
		-0.0078125],
		"type":"VEC2",
		"min":[0.0078125,
		-0.9885402917861939],
		"componentType":5126,
		"count":554,
		"byteOffset":24
	},
	{
		"bufferView":8,
		"max":[997],
		"type":"SCALAR",
		"min":[0],
		"componentType":5123,
		"count":4440,
		"byteOffset":0
	},
	{
		"bufferView":9,
		"max":[85.01405334472656,
		145.78907775878907,
		9.073930740356446],
		"type":"VEC3",
		"min":[-85.01405334472656,
		137.9194793701172,
		-4.3904314041137699],
		"componentType":5126,
		"count":998,
		"byteOffset":0
	},
	{
		"bufferView":9,
		"max":[0.9988750219345093,
		0.9994375705718994,
		0.9958750605583191],
		"type":"VEC3",
		"min":[-0.9988750219345093,
		-0.9999688267707825,
		-0.9993438124656677],
		"componentType":5126,
		"count":998,
		"byteOffset":12
	},
	{
		"bufferView":9,
		"max":[0.9856586456298828,
		-0.01528918743133545],
		"type":"VEC2",
		"min":[0.00620761513710022,
		-0.9853763580322266],
		"componentType":5126,
		"count":998,
		"byteOffset":24
	},
	{
		"bufferView":10,
		"max":[4125],
		"type":"SCALAR",
		"min":[0],
		"componentType":5123,
		"count":13596,
		"byteOffset":0
	},
	{
		"bufferView":11,
		"max":[66.43843078613281,
		156.33770751953126,
		16.08252716064453],
		"type":"VEC3",
		"min":[-66.43846130371094,
		109.30150604248047,
		-10.791926383972168],
		"componentType":5126,
		"count":4126,
		"byteOffset":0
	},
	{
		"bufferView":11,
		"max":[0.9998750686645508,
		1.0,
		0.9999688267707825],
		"type":"VEC3",
		"min":[-0.9998750686645508,
		-1.0,
		-0.9988750219345093],
		"componentType":5126,
		"count":4126,
		"byteOffset":12
	},
	{
		"bufferView":11,
		"max":[1.992071270942688,
		-0.006880283355712891],
		"type":"VEC2",
		"min":[0.003980014007538557,
		-0.9931150674819946],
		"componentType":5126,
		"count":4126,
		"byteOffset":24
	},
	{
		"bufferView":12,
		"max":[41],
		"type":"SCALAR",
		"min":[0],
		"componentType":5123,
		"count":144,
		"byteOffset":0
	},
	{
		"bufferView":13,
		"max":[4.144861698150635,
		159.011962890625,
		5.944109916687012],
		"type":"VEC3",
		"min":[-4.14483118057251,
		152.8245849609375,
		-2.5366244316101076],
		"componentType":5126,
		"count":42,
		"byteOffset":0
	},
	{
		"bufferView":13,
		"max":[0.9956875443458557,
		0.2134375125169754,
		0.9079375267028809],
		"type":"VEC3",
		"min":[-0.9956875443458557,
		-0.46553125977516177,
		-0.9878125190734863],
		"componentType":5126,
		"count":42,
		"byteOffset":12
	},
	{
		"bufferView":13,
		"max":[0.8486435413360596,
		0.47989386320114138],
		"type":"VEC2",
		"min":[0.2477729320526123,
		0.3963262438774109],
		"componentType":5126,
		"count":42,
		"byteOffset":24
	},
	{
		"bufferView":14,
		"max":[1300],
		"type":"SCALAR",
		"min":[0],
		"componentType":5123,
		"count":4821,
		"byteOffset":0
	},
	{
		"bufferView":15,
		"max":[16.440288543701173,
		184.7332305908203,
		14.051048278808594],
		"type":"VEC3",
		"min":[-18.33930206298828,
		134.89239501953126,
		-17.055997848510743],
		"componentType":5126,
		"count":1301,
		"byteOffset":0
	},
	{
		"bufferView":15,
		"max":[0.9962813258171082,
		0.9941250681877136,
		0.9995625615119934],
		"type":"VEC3",
		"min":[-0.9982500672340393,
		-0.999125063419342,
		-0.9964063167572022],
		"componentType":5126,
		"count":1301,
		"byteOffset":12
	},
	{
		"bufferView":15,
		"max":[1.9927877187728882,
		-0.0037652254104614259],
		"type":"VEC2",
		"min":[0.006835062522441149,
		-0.9930511116981506],
		"componentType":5126,
		"count":1301,
		"byteOffset":24
	},
	{
		"bufferView":16,
		"max":[2783],
		"type":"SCALAR",
		"min":[0],
		"componentType":5123,
		"count":10902,
		"byteOffset":0
	},
	{
		"bufferView":17,
		"max":[6.256283760070801,
		235.05575561523438,
		4.773521900177002],
		"type":"VEC3",
		"min":[-6.256283760070801,
		-19.576282501220704,
		-4.773521900177002],
		"componentType":5126,
		"count":2784,
		"byteOffset":0
	},
	{
		"bufferView":17,
		"max":[1.0,
		1.0,
		1.0],
		"type":"VEC3",
		"min":[-1.0,
		-1.0,
		-1.0],
		"componentType":5126,
		"count":2784,
		"byteOffset":12
	},
	{
		"bufferView":17,
		"max":[3.8181443214416506,
		-0.0037573575973510744],
		"type":"VEC2",
		"min":[-8.755922635828028e-7,
		-0.9921014308929443],
		"componentType":5126,
		"count":2784,
		"byteOffset":24
	}],
	"bufferViews":[{
		"buffer":0,
		"byteOffset":0,
		"byteLength":11448,
		"target":34963
	},
	{
		"buffer":0,
		"byteOffset":11448,
		"byteLength":46528,
		"target":34962,
		"byteStride":32
	},
	{
		"buffer":1,
		"byteOffset":0,
		"byteLength":2112,
		"target":34963
	},
	{
		"buffer":1,
		"byteOffset":2112,
		"byteLength":6784,
		"target":34962,
		"byteStride":32
	},
	{
		"buffer":2,
		"byteOffset":0,
		"byteLength":8436,
		"target":34963
	},
	{
		"buffer":2,
		"byteOffset":8436,
		"byteLength":25856,
		"target":34962,
		"byteStride":32
	},
	{
		"buffer":3,
		"byteOffset":0,
		"byteLength":4584,
		"target":34963
	},
	{
		"buffer":3,
		"byteOffset":4584,
		"byteLength":17728,
		"target":34962,
		"byteStride":32
	},
	{
		"buffer":4,
		"byteOffset":0,
		"byteLength":8880,
		"target":34963
	},
	{
		"buffer":4,
		"byteOffset":8880,
		"byteLength":31936,
		"target":34962,
		"byteStride":32
	},
	{
		"buffer":5,
		"byteOffset":0,
		"byteLength":27192,
		"target":34963
	},
	{
		"buffer":5,
		"byteOffset":27192,
		"byteLength":132032,
		"target":34962,
		"byteStride":32
	},
	{
		"buffer":6,
		"byteOffset":0,
		"byteLength":288,
		"target":34963
	},
	{
		"buffer":6,
		"byteOffset":288,
		"byteLength":1344,
		"target":34962,
		"byteStride":32
	},
	{
		"buffer":7,
		"byteOffset":0,
		"byteLength":9642,
		"target":34963
	},
	{
		"buffer":7,
		"byteOffset":9644,
		"byteLength":41632,
		"target":34962,
		"byteStride":32
	},
	{
		"buffer":8,
		"byteOffset":0,
		"byteLength":21804,
		"target":34963
	},
	{
		"buffer":8,
		"byteOffset":21804,
		"byteLength":89088,
		"target":34962,
		"byteStride":32
	}],
	"buffers":[{
		"uri":"data:application/octet-stream;base64,",
		"byteLength":57976
	},
	{
		"uri":"data:application/octet-stream;base64,",
		"byteLength":8896
	},
	{
		"uri":"data:application/octet-stream;base64,",
		"byteLength":34292
	},
	{
		"uri":"data:application/octet-stream;base64,",
		"byteLength":22312
	},
	{
		"uri":"data:application/octet-stream;base64,",
		"byteLength":40816
	},
	{
		"uri":"data:application/octet-stream;base64,",
		"byteLength":159224
	},
	{
		"uri":"data:application/octet-stream;base64,",
		"byteLength":1632
	},
	{
		"uri":"data:application/octet-stream;base64,",
		"byteLength":51276
	},
	{
		"uri":"data:application/octet-stream;base64,",
		"byteLength":110892
	}],
	"images":[{
		"uri":"data:image/jpeg;base64,"
	},
	{
		"uri":"data:image/jpeg;base64,"
	},
	{
		"uri":"data:image/jpeg;base64,"
	},
	{
		"uri":"data:image/jpeg;base64,"
	},
	{
		"uri":"data:image/jpeg;base64,"
	},
	{
		"uri":"data:image/jpeg;base64,"
	},
	{
		"uri":"data:image/jpeg;base64,"
	},
	{
		"uri":"data:image/jpeg;base64,"
	}],
	"materials":[{
		"pbrMetallicRoughness":{
			"baseColorTexture":{
				"index":0
			},
			"baseColorFactor":[0.800000011920929,
			0.800000011920929,
			0.800000011920929,
			1.0],
			"metallicFactor":1.0,
			"roughnessFactor":1.0
		},
		"emissiveFactor":[0.0,
		0.0,
		0.0],
		"name":"mtl_NEKO_Subrace_Crystalist_Head",
		"alphaMode":"OPAQUE",
		"doubleSided":false
	},
	{
		"pbrMetallicRoughness":{
			"baseColorTexture":{
				"index":1
			},
			"baseColorFactor":[0.800000011920929,
			0.800000011920929,
			0.800000011920929,
			1.0],
			"metallicFactor":1.0,
			"roughnessFactor":1.0
		},
		"emissiveFactor":[0.0,
		0.0,
		0.0],
		"name":"mtl_NEKO_Subrace_eyes",
		"alphaMode":"OPAQUE",
		"doubleSided":false
	},
	{
		"pbrMetallicRoughness":{
			"baseColorTexture":{
				"index":2
			},
			"baseColorFactor":[1.0,
			1.0,
			1.0,
			1.0],
			"metallicFactor":0.0,
			"roughnessFactor":0.5678071905112637
		},
		"emissiveFactor":[0.0,
		0.0,
		0.0],
		"name":"mtl_NEKO_CatInAShell_Pant",
		"alphaMode":"OPAQUE",
		"doubleSided":false
	},
	{
		"pbrMetallicRoughness":{
			"baseColorTexture":{
				"index":3
			},
			"baseColorFactor":[1.0,
			1.0,
			1.0,
			1.0],
			"metallicFactor":0.0,
			"roughnessFactor":0.5678071905112637
		},
		"emissiveFactor":[0.0,
		0.0,
		0.0],
		"name":"mtl_NEKO_CatInAShell_Shoes",
		"alphaMode":"OPAQUE",
		"doubleSided":false
	},
	{
		"normalTexture":{
			"index":5,
			"scale":1.0
		},
		"pbrMetallicRoughness":{
			"baseColorTexture":{
				"index":4
			},
			"baseColorFactor":[1.0,
			1.0,
			1.0,
			1.0],
			"metallicFactor":0.0,
			"roughnessFactor":0.5678071905112637
		},
		"emissiveFactor":[0.0,
		0.0,
		0.0],
		"name":"mtl_NEKO_CatInAShell_Hand",
		"alphaMode":"OPAQUE",
		"doubleSided":false
	},
	{
		"pbrMetallicRoughness":{
			"baseColorTexture":{
				"index":6
			},
			"baseColorFactor":[1.0,
			1.0,
			1.0,
			1.0],
			"metallicFactor":0.0,
			"roughnessFactor":0.5356143810225276
		},
		"emissiveFactor":[0.0,
		0.0,
		0.0],
		"name":"mtl_NEKO_CatInAShell_Cloth",
		"alphaMode":"OPAQUE",
		"doubleSided":false
	},
	{
		"pbrMetallicRoughness":{
			"baseColorFactor":[0.4000000059604645,
			0.4000000059604645,
			0.4000000059604645,
			1.0],
			"metallicFactor":1.0,
			"roughnessFactor":1.0
		},
		"emissiveFactor":[0.0,
		0.0,
		0.0],
		"name":"mtl_NEKO_Top",
		"alphaMode":"OPAQUE",
		"doubleSided":false
	},
	{
		"pbrMetallicRoughness":{
			"baseColorTexture":{
				"index":7
			},
			"baseColorFactor":[1.0,
			1.0,
			1.0,
			1.0],
			"metallicFactor":0.0,
			"roughnessFactor":0.5356143810225276
		},
		"emissiveFactor":[0.0,
		0.0,
		0.0],
		"name":"mtl_NEKO_CatInAShell_Accessories",
		"alphaMode":"OPAQUE",
		"doubleSided":false
	},
	{
		"pbrMetallicRoughness":{
			"baseColorFactor":[0.800000011920929,
			0.800000011920929,
			0.800000011920929,
			1.0],
			"metallicFactor":1.0,
			"roughnessFactor":1.0
		},
		"emissiveFactor":[0.0,
		0.0,
		0.0],
		"name":"mtl_Wea_NEKO_LightningWhip_06",
		"alphaMode":"BLEND",
		"doubleSided":false
	}]
}